<?xml version="1.0" standalone="no"?>
<!DOCTYPE svg PUBLIC "-//W3C//DTD SVG 20010904//EN"
 "http://www.w3.org/TR/2001/REC-SVG-20010904/DTD/svg10.dtd">
<svg version="1.0" xmlns="http://www.w3.org/2000/svg"
 width="321.000000pt" height="321.000000pt" viewBox="0 0 321.000000 321.000000"
 preserveAspectRatio="xMidYMid meet">
<metadata>
Created by potrace 1.14, written by Peter Selinger 2001-2017
</metadata>
<g transform="translate(0.000000,321.000000) scale(0.100000,-0.100000)"
fill="#000000" stroke="none">
<path d="M1880 3061 c-139 -46 -220 -150 -228 -293 -4 -67 -1 -84 21 -130 30
-61 46 -81 102 -123 51 -38 97 -60 160 -76 98 -24 155 -66 155 -114 0 -33 -37
-84 -72 -98 -39 -17 -90 -13 -124 10 -27 17 -57 67 -47 77 10 10 -5 7 -112
-18 -111 -26 -110 -23 -75 -103 26 -60 94 -128 159 -160 48 -24 68 -28 146
-28 77 0 98 4 147 27 193 90 250 321 118 471 -42 48 -96 80 -185 108 -126 39
-171 71 -181 124 -10 55 32 109 94 120 40 7 94 -30 107 -73 10 -33 7 -33 85
-17 127 25 130 26 130 48 0 71 -94 190 -180 229 -49 23 -176 34 -220 19z"/>
<path d="M960 2535 c0 -289 3 -525 8 -526 4 0 145 -1 315 -2 l307 -2 0 108 0
107 -210 0 -210 0 0 420 0 420 -105 0 -105 0 0 -525z"/>
<path d="M2020 957 l0 -537 105 0 105 0 2 212 3 211 145 -201 c80 -111 147
-202 150 -202 3 0 71 91 150 202 l145 202 3 -212 2 -212 105 0 105 0 0 537 0
537 -58 -80 c-32 -43 -145 -199 -252 -347 -106 -147 -197 -266 -201 -265 -5 2
-108 140 -230 308 -122 168 -234 323 -250 344 l-29 40 0 -537z"/>
<path d="M525 1464 c-180 -48 -325 -200 -376 -394 -15 -59 -15 -185 1 -252 44
-185 199 -345 381 -393 78 -21 238 -14 312 13 207 75 341 261 352 490 l4 82
-272 0 -273 0 0 -100 1 -100 148 0 148 0 -16 -31 c-25 -47 -84 -100 -145 -128
-71 -33 -172 -34 -242 -4 -65 30 -131 94 -164 161 -24 48 -29 70 -29 137 0 67
4 89 28 136 52 107 159 180 266 182 92 2 153 -18 220 -72 l25 -19 74 74 75 75
-24 25 c-35 37 -143 95 -215 115 -74 20 -207 22 -279 3z"/>
<path d="M1290 945 c0 -289 3 -525 8 -526 12 0 606 -1 617 0 8 1 11 117 6 199
-1 9 -50 12 -211 12 l-210 0 0 420 0 420 -105 0 -105 0 0 -525z"/>
</g>
</svg>
